<?xml version="1.0" standalone="no"?>
<!DOCTYPE svg PUBLIC "-//W3C//DTD SVG 20010904//EN"
 "http://www.w3.org/TR/2001/REC-SVG-20010904/DTD/svg10.dtd">
<svg version="1.0" xmlns="http://www.w3.org/2000/svg"
 width="2000.000000pt" height="2000.000000pt" viewBox="0 0 2000.000000 2000.000000"
 preserveAspectRatio="xMidYMid meet">

<g transform="translate(0.000000,2000.000000) scale(0.100000,-0.100000)"
fill="#000000" stroke="none">
<path d="M8285 17814 c-11 -2 -69 -8 -130 -14 -244 -25 -487 -92 -662 -183
-16 -8 -48 -25 -73 -37 -357 -183 -683 -523 -865 -904 -91 -190 -138 -343
-173 -559 -29 -175 -24 -467 11 -632 120 -570 528 -1206 1213 -1889 115 -115
250 -245 299 -289 50 -44 124 -111 165 -148 111 -99 219 -188 567 -469 223
-181 623 -468 843 -606 129 -81 129 -82 106 -98 -33 -21 -49 -76 -44 -144 4
-47 10 -60 37 -84 37 -33 79 -36 159 -13 68 21 68 37 0 19 -137 -36 -188 0
-176 127 7 74 26 89 112 89 39 0 98 -7 131 -15 71 -17 121 -19 130 -5 3 6 11
10 16 10 6 0 7 -4 4 -10 -9 -14 33 -12 91 4 55 17 217 46 251 46 13 0 29 -11
39 -24 13 -22 14 -35 4 -103 -12 -79 -24 -112 -44 -125 -23 -16 -80 -7 -167
27 -100 40 -202 55 -237 36 -34 -18 -132 -222 -262 -546 -127 -318 -215 -612
-257 -860 -27 -164 -25 -465 5 -597 68 -308 189 -530 591 -1088 452 -628 606
-869 712 -1116 268 -625 170 -1219 -365 -2209 -60 -110 -225 -406 -368 -657
-143 -252 -258 -463 -256 -470 2 -6 18 13 35 43 17 29 132 232 255 449 521
914 673 1230 782 1625 112 404 110 722 -4 1068 -98 295 -258 561 -723 1205
-483 668 -600 887 -654 1226 -21 135 -14 407 16 563 57 303 184 687 347 1047
55 122 58 128 66 99 10 -40 30 -55 76 -59 20 -2 58 -6 84 -10 43 -6 50 -4 78
24 35 36 37 58 10 137 -11 32 -19 60 -17 61 1 2 14 7 27 12 19 7 41 3 88 -14
136 -52 181 -25 200 119 6 46 8 93 5 105 -4 18 7 27 73 61 171 89 353 210 656
439 99 75 193 146 207 157 15 11 83 65 151 120 69 55 137 109 151 120 33 25
144 118 184 154 17 15 62 54 100 86 39 32 75 63 80 69 6 6 87 81 180 167 677
623 1155 1252 1368 1800 63 162 111 352 123 485 3 38 9 98 13 134 5 36 7 70 5
75 -2 6 -8 60 -14 120 -19 192 -29 252 -65 390 -23 89 -112 306 -168 409 -195
360 -498 655 -857 835 -193 96 -339 147 -526 181 -443 82 -915 14 -1291 -186
-110 -58 -218 -124 -270 -165 -132 -105 -245 -172 -351 -209 l-108 -38 -88 29
c-118 39 -173 70 -361 204 -221 158 -466 277 -686 334 -151 40 -480 76 -584
65z m-666 -588 c-2 -2 -15 -9 -29 -16 -23 -12 -24 -12 -11 3 7 10 20 17 29 17
8 0 13 -2 11 -4z m-9 -44 c0 -4 -19 -30 -43 -57 -23 -28 -59 -73 -80 -102
l-37 -52 86 -91 c48 -49 92 -90 100 -90 13 0 73 32 227 119 31 18 57 30 57 27
0 -6 -95 -69 -230 -153 l-52 -33 -38 30 c-52 41 -147 145 -155 169 -3 11 -17
27 -31 36 -36 23 -29 63 14 90 18 11 62 41 99 68 64 46 83 55 83 39z m-32
-104 c-19 -24 -42 -57 -51 -75 -18 -33 -35 -49 -44 -40 -9 10 108 155 126 157
2 0 -12 -19 -31 -42z m41 -185 c2 -2 2 -5 0 -8 -3 -2 -23 14 -45 38 l-39 42
40 -35 c22 -19 42 -36 44 -37z m27 -63 c7 0 17 7 22 16 5 9 17 14 28 12 15 -2
11 -8 -19 -25 l-37 -23 -65 62 c-36 33 -65 65 -65 70 0 4 28 -19 62 -52 33
-33 67 -60 74 -60z m-332 64 c3 -9 6 -24 6 -34 0 -10 4 -20 8 -22 4 -1 19 -23
34 -48 14 -25 45 -67 68 -93 l43 -48 -49 -47 c-157 -150 -305 -474 -334 -732
l-7 -65 -1 70 c-2 77 13 153 58 293 58 178 149 338 248 435 l49 49 -24 26
c-40 43 -93 125 -93 144 0 10 -4 18 -9 18 -16 0 -113 -94 -181 -175 -36 -43
-77 -91 -93 -107 -28 -29 -68 -103 -82 -148 -4 -14 -16 -44 -26 -66 -26 -60
-58 -250 -63 -382 -2 -63 -7 -116 -10 -119 -16 -16 -5 270 14 377 33 180 86
293 201 430 39 47 98 121 131 165 33 44 65 83 72 87 18 12 33 9 40 -8z m341
-24 c3 -5 1 -10 -4 -10 -6 0 -11 5 -11 10 0 6 2 10 4 10 3 0 8 -4 11 -10z
m-302 -152 c22 -32 45 -58 51 -58 5 0 -10 -21 -36 -47 -50 -52 -114 -138 -143
-193 -41 -75 -57 -101 -62 -97 -2 2 10 31 27 63 16 32 30 62 30 66 0 5 9 17
20 28 12 12 18 26 14 32 -4 7 -3 8 4 4 7 -4 13 -4 13 1 7 41 4 59 -10 70 -9 7
-11 12 -4 13 6 0 18 -9 26 -20 14 -20 16 -19 55 26 23 26 38 52 35 57 -3 5 -9
3 -14 -4 -6 -10 -8 -8 -7 6 2 21 -29 75 -42 75 -5 0 -10 8 -12 18 -3 14 -11 9
-44 -23 -79 -80 -172 -201 -117 -152 20 17 21 17 26 -4 4 -16 11 -20 26 -16
26 6 29 -18 4 -28 -17 -6 -17 -7 0 -16 9 -6 17 -15 17 -20 0 -6 -4 -7 -10 -4
-14 8 -13 -8 1 -22 9 -9 8 -16 -3 -27 -9 -8 -18 -13 -21 -10 -3 3 -14 1 -23
-4 -14 -8 -22 -6 -32 6 -12 15 -13 13 -8 -18 4 -18 12 -37 18 -41 7 -5 9 -11
5 -15 -3 -4 -13 -1 -22 6 -10 8 -15 9 -15 1 0 -6 -16 -11 -37 -11 -28 0 -34 3
-23 10 8 5 12 11 9 14 -3 3 -16 -5 -29 -19 -20 -21 -21 -27 -9 -41 13 -16 11
-17 -13 -11 -20 5 -29 3 -37 -10 -5 -10 -13 -14 -17 -10 -5 4 -3 17 4 27 7 11
12 29 12 40 0 31 67 161 98 191 15 14 60 64 101 112 40 48 90 101 110 119 33
29 36 30 40 12 2 -10 21 -45 44 -76z m-68 -78 c3 -5 1 -10 -4 -10 -6 0 -11 5
-11 10 0 6 2 10 4 10 3 0 8 -4 11 -10z m-55 -16 c0 -8 -4 -12 -10 -9 -5 3 -10
10 -10 16 0 5 5 9 10 9 6 0 10 -7 10 -16z m-30 -35 c0 -5 -7 -9 -15 -9 -9 0
-15 9 -15 21 0 18 2 19 15 9 8 -7 15 -16 15 -21z m40 -99 c0 -5 -4 -10 -10
-10 -5 0 -10 5 -10 10 0 6 5 10 10 10 6 0 10 -4 10 -10z"/>
<path d="M7030 16439 c0 -5 5 -7 10 -4 6 3 10 8 10 11 0 2 -4 4 -10 4 -5 0
-10 -5 -10 -11z"/>
<path d="M7060 16418 c0 -16 5 -28 10 -28 13 0 13 20 0 40 -8 12 -10 9 -10
-12z"/>
<path d="M6995 16400 c-25 -27 -12 -37 14 -11 12 12 21 23 21 26 0 11 -18 4
-35 -15z"/>
<path d="M9776 11708 c-79 -136 -233 -500 -315 -744 -162 -485 -203 -856 -132
-1183 66 -302 195 -536 593 -1074 445 -602 545 -752 669 -1000 145 -289 196
-510 186 -821 -7 -218 -31 -349 -111 -590 -124 -372 -266 -654 -769 -1524
-124 -213 -245 -426 -271 -473 l-46 -86 -39 10 c-43 12 -71 -1 -71 -32 0 -22
26 -58 36 -49 4 4 1 14 -6 23 -23 28 -5 45 46 42 l48 -2 44 80 c25 44 161 280
302 525 327 565 411 718 531 965 299 615 390 1058 303 1483 -25 125 -92 312
-158 444 -121 243 -252 442 -624 942 -507 683 -631 925 -672 1316 -42 394 115
1009 412 1618 44 90 77 166 75 169 -3 2 -17 -15 -31 -39z"/>
<path d="M9700 4250 c0 -5 14 -10 30 -10 68 0 122 -50 174 -160 59 -125 55
-145 -8 -45 -80 126 -123 168 -173 168 -22 0 -48 -5 -59 -11 -15 -9 -7 -10 37
-9 45 2 62 -2 79 -18 33 -30 89 -115 163 -250 88 -160 89 -160 67 -80 -65 238
-134 371 -214 409 -38 18 -96 22 -96 6z"/>
<path d="M9654 4143 c4 -10 -2 -25 -15 -40 -26 -27 -11 -31 21 -5 17 13 21 24
16 40 -4 12 -12 22 -18 22 -5 0 -7 -7 -4 -17z"/>
<path d="M9481 4111 c-20 -20 -26 -39 -22 -69 1 -8 -5 -22 -13 -31 -9 -10 -15
-26 -14 -37 2 -10 -49 -125 -113 -254 -189 -380 -302 -662 -389 -970 -32 -112
-33 -119 -16 -90 8 14 33 88 56 165 82 270 208 576 375 909 58 116 105 222
105 237 0 15 4 30 9 33 4 3 11 22 14 42 3 20 14 45 23 55 24 27 10 35 -15 10z"/>
<path d="M9623 3967 c-2 -108 -7 -146 -47 -378 -27 -160 -54 -271 -86 -364
-14 -38 -25 -104 -30 -180 -5 -71 -18 -149 -31 -190 -70 -227 -227 -406 -340
-389 -21 4 -53 1 -73 -6 -73 -24 -106 32 -85 144 12 69 5 86 -11 25 -38 -138
13 -227 104 -184 24 12 39 13 59 6 84 -32 220 84 307 264 60 123 80 198 90
340 4 61 15 130 24 155 50 133 107 425 133 673 14 136 14 160 2 172 -12 12
-14 -1 -16 -88z"/>
<path d="M9475 3890 c-14 -27 -25 -52 -25 -56 0 -16 29 20 45 56 10 22 24 40
32 40 16 0 17 4 -5 -53 -11 -28 -28 -53 -42 -60 -37 -19 -60 -74 -60 -142 0
-78 28 -346 36 -354 4 -3 4 35 0 84 -3 50 -9 147 -12 217 l-7 127 40 40 c69
71 92 151 43 151 -14 0 -27 -15 -45 -50z"/>
<path d="M9553 3773 c1 -83 -7 -144 -32 -263 -17 -85 -34 -163 -37 -172 -3
-10 -1 -18 4 -18 11 0 58 202 77 333 13 93 11 227 -5 227 -4 0 -7 -48 -7 -107z"/>
<path d="M9347 3613 c-11 -17 -136 -311 -163 -383 -30 -78 -87 -294 -108 -409
-16 -86 -22 -261 -8 -261 4 0 8 42 9 93 3 192 76 466 203 761 44 104 79 194
77 200 -2 7 -6 6 -10 -1z"/>
<path d="M9381 3545 c0 -44 6 -156 14 -249 16 -199 17 -194 -78 -381 -50 -98
-137 -237 -216 -346 -7 -11 -9 -19 -4 -19 12 0 100 117 154 205 23 39 71 129
106 201 58 122 63 136 63 200 0 70 -28 441 -35 459 -2 6 -4 -26 -4 -70z"/>
<path d="M9296 2797 c-30 -52 -80 -128 -111 -168 -62 -83 -73 -115 -19 -54 68
76 204 299 191 312 -3 2 -30 -38 -61 -90z"/>
<path d="M9358 2822 c-41 -100 -97 -188 -157 -248 -29 -30 -47 -54 -40 -54 7
0 39 27 70 59 54 57 124 176 149 254 21 65 6 58 -22 -11z"/>
<path d="M8965 2685 c-37 -128 -30 -215 18 -215 44 0 46 8 38 140 -7 120 -7
123 -15 67 -8 -55 -4 -113 10 -163 4 -16 0 -23 -17 -27 -12 -3 -26 -4 -31 -1
-13 8 -9 97 7 169 20 87 13 108 -10 30z"/>
</g>
</svg>
